<?xml version="1.0" encoding="utf-8"?>
<!-- Generator: Adobe Illustrator 23.0.5, SVG Export Plug-In . SVG Version: 6.00 Build 0)  -->
<svg version="1.1" id="Layer_1" xmlns="http://www.w3.org/2000/svg" xmlns:xlink="http://www.w3.org/1999/xlink" x="0px" y="0px"
	 viewBox="0 0 538.3 265" style="enable-background:new 0 0 538.3 265;" xml:space="preserve">
<style type="text/css">
	.st0{fill:#FFFFFF00;}
	.st1{fill:url(#SVGID_1_);}
	.st2{fill:url(#SVGID_2_);}
	.st3{fill:url(#SVGID_3_);}
	.st4{fill:url(#SVGID_4_);}
	.st5{fill:url(#SVGID_5_);}
	.st6{fill:url(#SVGID_6_);}
	.st7{fill:url(#SVGID_7_);}
	.st8{fill:url(#SVGID_8_);}
	.st9{fill:url(#SVGID_9_);}
	.st10{fill:#1F2733;}
	.st11{fill:#92278F;}
	.st12{fill:#8DC63F;}
	.st13{fill:#27AAE1;}
</style>
<rect class="st0" width="538.3" height="265"/>
<g>
	
		<linearGradient id="SVGID_1_" gradientUnits="userSpaceOnUse" x1="-3.6826" y1="13.8497" x2="539.016" y2="15.4794" gradientTransform="matrix(1 0 0 -1 0 247.7826)">
		<stop  offset="0" style="stop-color:#92278F"/>
		<stop  offset="0.5271" style="stop-color:#27AAE1"/>
		<stop  offset="1" style="stop-color:#8DC63F"/>
	</linearGradient>
	<path class="st1" d="M58.9,206.3v55H44.1v-21.4H18.8v21.4H4v-55h14.8v21.4h25.3v-21.4H58.9z"/>
	
		<linearGradient id="SVGID_2_" gradientUnits="userSpaceOnUse" x1="-3.6818" y1="13.5317" x2="539.0168" y2="15.1614" gradientTransform="matrix(1 0 0 -1 0 247.7826)">
		<stop  offset="0" style="stop-color:#92278F"/>
		<stop  offset="0.5271" style="stop-color:#27AAE1"/>
		<stop  offset="1" style="stop-color:#8DC63F"/>
	</linearGradient>
	<path class="st2" d="M106.5,252.8H80.6l-3.1,8.6H62.2l21-55h20.7l21,55h-15.3L106.5,252.8z M102.5,241.7l-7.7-21.5h-2.7l-7.7,21.5
		H102.5z"/>
	
		<linearGradient id="SVGID_3_" gradientUnits="userSpaceOnUse" x1="-3.6813" y1="13.4757" x2="539.0176" y2="15.1054" gradientTransform="matrix(1 0 0 -1 0 247.7826)">
		<stop  offset="0" style="stop-color:#92278F"/>
		<stop  offset="0.5271" style="stop-color:#27AAE1"/>
		<stop  offset="1" style="stop-color:#8DC63F"/>
	</linearGradient>
	<path class="st3" d="M128.1,206.3h17.1l23.1,34.6h1.3v-34.6H184v55h-16.7l-23.5-34.6h-1.4v34.6H128v-55H128.1z"/>
	
		<linearGradient id="SVGID_4_" gradientUnits="userSpaceOnUse" x1="-3.6816" y1="13.3363" x2="539.0176" y2="14.966" gradientTransform="matrix(1 0 0 -1 0 247.7826)">
		<stop  offset="0" style="stop-color:#92278F"/>
		<stop  offset="0.5271" style="stop-color:#27AAE1"/>
		<stop  offset="1" style="stop-color:#8DC63F"/>
	</linearGradient>
	<path class="st4" d="M245.1,233.8c0,15.7-8,27.5-29.7,27.5h-26.1v-55h26C237.1,206.3,245.1,218.1,245.1,233.8z M230.3,233.8
		c0-10-5.4-15.1-14.9-15.1h-11.2l-0.1,30.2h11.2C224.8,248.9,230.3,243.8,230.3,233.8z"/>
	
		<linearGradient id="SVGID_5_" gradientUnits="userSpaceOnUse" x1="-3.6802" y1="13.1673" x2="539.0182" y2="14.797" gradientTransform="matrix(1 0 0 -1 0 247.7826)">
		<stop  offset="0" style="stop-color:#92278F"/>
		<stop  offset="0.5271" style="stop-color:#27AAE1"/>
		<stop  offset="1" style="stop-color:#8DC63F"/>
	</linearGradient>
	<path class="st5" d="M277.4,243.9v17.4h-14.7v-17.5L240,206.3h15.7l13.7,23.3h1.4l13.8-23.3h15.6L277.4,243.9z"/>
	
		<linearGradient id="SVGID_6_" gradientUnits="userSpaceOnUse" x1="-3.6796" y1="12.9518" x2="539.0186" y2="14.5815" gradientTransform="matrix(1 0 0 -1 0 247.7826)">
		<stop  offset="0" style="stop-color:#92278F"/>
		<stop  offset="0.5271" style="stop-color:#27AAE1"/>
		<stop  offset="1" style="stop-color:#8DC63F"/>
	</linearGradient>
	<path class="st6" d="M357.9,206.3v55h-14.8v-21.4h-25.3v21.4H303v-55h14.8v21.4h25.3v-21.4H357.9z"/>
	
		<linearGradient id="SVGID_7_" gradientUnits="userSpaceOnUse" x1="-3.6768" y1="11.8629" x2="539.0219" y2="13.4926" gradientTransform="matrix(1 0 0 -1 0 247.7826)">
		<stop  offset="0" style="stop-color:#92278F"/>
		<stop  offset="0.5271" style="stop-color:#27AAE1"/>
		<stop  offset="1" style="stop-color:#8DC63F"/>
	</linearGradient>
	<path class="st7" d="M363.1,238.1v-31.8H378v31.4c0,8.1,3.9,13,12.3,13s12.4-4.9,12.4-13v-31.4h14.7V238c0,17.2-9.6,25.2-27.2,25.2
		S363.1,255.2,363.1,238.1z"/>
	
		<linearGradient id="SVGID_8_" gradientUnits="userSpaceOnUse" x1="-3.6793" y1="12.6286" x2="539.0211" y2="14.2583" gradientTransform="matrix(1 0 0 -1 0 247.7826)">
		<stop  offset="0" style="stop-color:#92278F"/>
		<stop  offset="0.5271" style="stop-color:#27AAE1"/>
		<stop  offset="1" style="stop-color:#8DC63F"/>
	</linearGradient>
	<path class="st8" d="M476.3,245.8c0,9-6.4,15.5-22.9,15.5h-30.7v-55h31c16,0,20.9,6.7,20.9,14.3c0,6-3,9-7.5,11.1v0.9
		C473,235.1,476.3,239.3,476.3,245.8z M437.5,217.7v10.9h15c5.4,0,8-2.1,8-5.4c0-3.4-2.6-5.6-8-5.6L437.5,217.7L437.5,217.7z
		 M461.4,243.5c0-3.6-2.8-6-8.3-6h-15.6v12.4h15.6C458.6,249.9,461.4,247.1,461.4,243.5z"/>
	
		<linearGradient id="SVGID_9_" gradientUnits="userSpaceOnUse" x1="-3.6788" y1="12.4539" x2="539.0216" y2="14.0835" gradientTransform="matrix(1 0 0 -1 0 247.7826)">
		<stop  offset="0" style="stop-color:#92278F"/>
		<stop  offset="0.5271" style="stop-color:#27AAE1"/>
		<stop  offset="1" style="stop-color:#8DC63F"/>
	</linearGradient>
	<path class="st9" d="M534.5,245.8c0,9-6.4,15.5-22.9,15.5h-30.7v-55h31c16,0,20.9,6.7,20.9,14.3c0,6-3,9-7.5,11.1v0.9
		C531.1,235.1,534.5,239.3,534.5,245.8z M495.7,217.7v10.9h15c5.4,0,8-2.1,8-5.4c0-3.4-2.6-5.6-8-5.6L495.7,217.7L495.7,217.7z
		 M519.5,243.5c0-3.6-2.8-6-8.3-6h-15.6v12.4h15.6C516.7,249.9,519.5,247.1,519.5,243.5z"/>
</g>
<g>
	<g>
		<path class="st10" d="M294.5,18.2c-2.7-1.1-5.5-2-8.3-2.7c-0.4-0.1-0.7-0.2-1.1-0.2l-1.1-0.2l-1.1-0.2c-0.4-0.1-0.7-0.1-1.1-0.2
			l-1.1-0.2c-0.4-0.1-0.7-0.1-1.1-0.2c-0.7-0.1-1.4-0.2-2.2-0.3c-0.1,0-0.2,0-0.3,0v23.2v31.1v4l20-8.6V42.9V19.4
			c-0.2-0.1-0.5-0.2-0.7-0.3C295.8,18.8,295.2,18.5,294.5,18.2z"/>
		<path class="st10" d="M344.6,43.4c-0.4-0.8-0.8-1.6-1.2-2.3c-0.8-1.4-1.6-2.8-2.5-4.2l0,0c-0.1-0.1-0.1-0.2-0.2-0.3
			c-1.8-2.9-3.9-5.6-6.1-8.2c-1.1-1.2-2.2-2.5-3.4-3.7c-0.3-0.3-0.6-0.6-0.9-0.9l-0.4-0.4l-0.2-0.2l-0.2-0.2c-0.6-0.5-1.1-1-1.7-1.5
			c-0.3-0.3-0.6-0.6-0.9-0.8c-0.3-0.3-0.6-0.5-0.9-0.8c-0.6-0.5-1.2-1-1.8-1.5c-0.6-0.5-1.3-1-1.9-1.4c-0.6-0.5-1.3-0.9-1.9-1.4
			c-5.2-3.5-10.5-6.3-16-8.3c-1.6-0.6-3.2-1.1-4.8-1.6c-0.1,0-0.2-0.1-0.3-0.1s-0.2-0.1-0.3-0.1c-26-7.4-47.6,2.8-47.6,2.8
			c0.1,0,0.3-0.1,0.4-0.1c0.9-0.3,1.8-0.5,2.7-0.8c0.9-0.2,1.9-0.5,2.9-0.7c0.2-0.1,0.5-0.1,0.7-0.2c0.2,0,0.5-0.1,0.7-0.1
			c0.5-0.1,1-0.2,1.5-0.3c4.1-0.7,8.4-1,13-0.9c2.3,0.1,4.6,0.3,7,0.6c0.6,0.1,1.2,0.2,1.8,0.3c0.6,0.1,1.2,0.2,1.8,0.3
			c0.6,0.1,1.2,0.3,1.8,0.4s1.2,0.3,1.8,0.4c4.8,1.3,9.6,3.2,14.3,5.7l0.4,0.2c0.1,0.1,0.3,0.2,0.4,0.3c0.3,0.2,0.6,0.3,0.9,0.5
			c0.6,0.3,1.1,0.7,1.7,1c0.6,0.4,1.1,0.7,1.7,1.1c0.3,0.2,0.6,0.4,0.8,0.6c0.3,0.2,0.5,0.4,0.8,0.6c0.5,0.4,1.1,0.8,1.6,1.2
			c0.3,0.2,0.5,0.4,0.8,0.6s0.5,0.4,0.8,0.6s0.5,0.4,0.8,0.7l0.4,0.3l0.4,0.3c0.5,0.5,1,0.9,1.5,1.4s1,1,1.5,1.4
			c0.5,0.5,1,1,1.5,1.5s0.9,1,1.4,1.6l0.7,0.8c0.1,0.1,0,0,0,0l0.1,0.1l0.2,0.2l0.4,0.4c0.5,0.6,1,1.2,1.4,1.8l0.2,0.2l0.1,0.2
			l0.3,0.4l0.6,0.8c0.8,1.1,1.6,2.3,2.3,3.5c0.3,0.4,0.5,0.9,0.8,1.3c0,0.1,0.1,0.1,0.1,0.2c0.5,0.9,1.1,1.9,1.6,2.8l0,0
			c0.3,0.5,0.5,1,0.8,1.5c0.3,0.6,0.5,1.1,0.8,1.7c0.6,1.3,1.1,2.6,1.7,4c0.2,0.7,0.5,1.4,0.7,2v0.1L344.6,43.4
			C344.6,43.5,344.6,43.4,344.6,43.4z"/>
		<path class="st10" d="M268.7,14.4c-0.4,0-0.7,0.1-1.1,0.2l-1.1,0.2c-0.4,0.1-0.7,0.1-1.1,0.2l-1.1,0.2l-1.1,0.2
			c-0.4,0.1-0.7,0.1-1.1,0.2c-2.8,0.7-5.6,1.6-8.3,2.7c-0.7,0.3-1.3,0.6-2,0.8c-0.2,0.1-0.5,0.2-0.7,0.3l0,0v0.5l20,55v-6.5v-1.8
			V34.4V14.1c-0.1,0-0.2,0-0.3,0C270.2,14.2,269.5,14.3,268.7,14.4z"/>
	</g>
	<path class="st11" d="M251.2,65.5H250h-33.3h-2.3c0-0.1,0-0.2,0.1-0.3l0.2-1.1l0.2-1.1c0.1-0.4,0.1-0.7,0.2-1.1
		c0.1-0.3,0.1-0.5,0.2-0.8c0.1-0.4,0.2-0.9,0.3-1.3c0.2-0.7,0.4-1.4,0.6-2.1c0.1-0.3,0.2-0.7,0.3-1l0.4-1l0.4-1l0.2-0.5
		c0.1-0.2,0.1-0.3,0.2-0.5c1-2.7,2.4-5.3,3.8-7.9l1.1-1.9c0.2-0.3,0.4-0.6,0.6-0.9l0.6-0.9l0.6-0.9l0.5-0.7l0.1-0.1V11.6
		c-0.2,0.1-0.4,0.3-0.5,0.4c-0.2,0.2-0.4,0.3-0.6,0.5l-0.6,0.5l-1.2,1l-1.2,1c-0.1,0.1-0.2,0.2-0.3,0.2l-0.2,0.2l-0.5,0.4l-0.9,0.9
		l-0.5,0.4l-0.6,0.6l-2,2.1c-0.2,0.2-0.4,0.5-0.7,0.7l0,0l0,0c-0.1,0.1-0.2,0.2-0.3,0.4l-1,1.1l-0.9,1.1l-0.5,0.6
		c-0.2,0.2-0.3,0.4-0.4,0.6l-1.8,2.3c-2.3,3.2-4.4,6.5-6.1,9.9c-0.1,0.2-0.2,0.4-0.3,0.6l-0.3,0.7l-0.6,1.3l-0.6,1.3
		c-0.2,0.4-0.4,0.9-0.6,1.3c-0.4,0.9-0.7,1.8-1.1,2.7c-0.3,0.9-0.6,1.8-1,2.7c-0.1,0.2-0.2,0.5-0.2,0.7l-0.2,0.7l-0.4,1.4l-0.4,1.4
		c-0.1,0.5-0.2,0.9-0.3,1.4l-0.3,1.4c-0.1,0.5-0.2,0.9-0.3,1.4c-0.2,0.9-0.3,1.9-0.5,2.8c-0.6,3.8-1,7.5-1,11.3c0,0.5,0,0.9,0,1.4
		v1.4v1.4c0,0.5,0.1,0.9,0.1,1.4c0.1,0.9,0.1,1.9,0.2,2.8c0.1,0.9,0.2,1.8,0.3,2.8c1,7.3,3.1,14.3,6,20.7c0.2,0.4,0.4,0.8,0.5,1.2
		c0.2,0.4,0.4,0.7,0.5,1.1l12.8-5.5l-0.3-0.9l-0.3-1c-1.4-4.7-2.3-9.6-2.6-14.6h10.6h27.2v1.7l20-8.6l-20-55L251.2,65.5L251.2,65.5z
		"/>
	<path class="st12" d="M352.4,76.3v-1.4v-1.4c0-0.5-0.1-0.9-0.1-1.4c-0.1-0.9-0.1-1.9-0.2-2.8s-0.2-1.8-0.3-2.8
		c-0.1-0.5-0.1-1-0.2-1.4c0-0.1,0-0.2-0.1-0.4c-0.1-0.4-0.1-0.7-0.2-1.1c0-0.1,0-0.2-0.1-0.4c-0.1-0.4-0.1-0.7-0.2-1.1
		c0-0.1,0-0.2-0.1-0.3c-0.1-0.4-0.2-0.7-0.2-1.1c0-0.1,0-0.2-0.1-0.3c-0.1-0.4-0.2-0.8-0.3-1.2c0-0.1,0-0.1,0-0.2
		c-0.1-0.4-0.2-0.8-0.3-1.3v-0.1c-0.1-0.4-0.2-0.9-0.4-1.3l0,0c-0.4-1.3-0.7-2.5-1.2-3.7c0,0,0,0,0-0.1c-0.3-0.8-0.5-1.5-0.8-2.3
		v-0.1c-0.3-0.7-0.6-1.5-0.9-2.2c0,0,0-0.1-0.1-0.1c-0.3-0.7-0.6-1.4-0.9-2.2c-0.2-0.4-0.4-0.8-0.5-1.2c-0.2-0.4-0.4-0.7-0.5-1.1
		l-12.8,5.5l0.3,0.9l0.3,1c1.4,4.7,2.3,9.6,2.6,14.6h-37.8v-1.7l-20,8.6l19,52.6l1,2.4v-6.3V81.7h36.8c0,0.1,0,0.2-0.1,0.3l-0.2,1.1
		l-0.2,1.1c-0.1,0.4-0.1,0.7-0.2,1.1c-0.2,0.7-0.4,1.4-0.6,2.1s-0.4,1.4-0.6,2.1c-0.1,0.3-0.2,0.7-0.3,1l-0.4,1l-0.4,1l-0.2,0.5
		c-0.1,0.2-0.1,0.3-0.2,0.5c-1,2.7-2.4,5.3-3.8,7.9l-1.1,1.9c-0.2,0.3-0.4,0.6-0.6,0.9l-0.6,0.9L324,106l-0.6,0.9v8.1v20.7
		c0.2-0.1,0.4-0.3,0.5-0.4c0.2-0.2,0.4-0.3,0.6-0.5l0.6-0.5l1.2-1l1.2-1c0.1-0.1,0.2-0.2,0.3-0.2l0.2-0.2l0.5-0.4l0.9-0.9l0.5-0.4
		l0.6-0.6l2-2.1c0.3-0.4,0.7-0.7,1-1.1l1-1.1l0.9-1.1l0.5-0.6c0.2-0.2,0.3-0.4,0.4-0.6l1.8-2.3c2.3-3.2,4.4-6.5,6.1-9.9
		c0.1-0.2,0.2-0.4,0.3-0.6l0.3-0.7l0.6-1.3l0.6-1.3c0.2-0.4,0.4-0.9,0.6-1.3c0.4-0.9,0.7-1.8,1.1-2.7c0.3-0.9,0.6-1.8,1-2.7
		c0.1-0.2,0.2-0.5,0.2-0.7l0.2-0.7l0.4-1.4l0.4-1.4c0.1-0.5,0.2-0.9,0.3-1.4l0.3-1.4c0.1-0.5,0.2-0.9,0.3-1.4
		c0.2-0.9,0.3-1.9,0.5-2.8c0.6-3.8,1-7.5,1-11.3C352.5,77.2,352.4,76.7,352.4,76.3z"/>
	<g>
		<g>
			<path class="st13" d="M254,129.1c2.7,1.1,5.5,2,8.3,2.7c0.4,0.1,0.7,0.2,1.1,0.2l1.1,0.2l1.1,0.2c0.4,0.1,0.7,0.1,1.1,0.2
				l1.1,0.2c0.4,0.1,0.7,0.1,1.1,0.2c0.7,0.1,1.4,0.2,2.2,0.3c0.1,0,0.2,0,0.3,0v-15.2V78.9v-3.8v-0.2l-20,8.6v25.8v18.6
				c0.2,0.1,0.5,0.2,0.7,0.3C252.6,128.5,253.3,128.8,254,129.1z"/>
			<path class="st13" d="M294.1,140c-0.9,0.2-1.9,0.5-2.9,0.7c-0.2,0.1-0.5,0.1-0.7,0.2c-0.2,0-0.5,0.1-0.7,0.1
				c-0.5,0.1-1,0.2-1.5,0.3c-4.1,0.7-8.4,1-13,0.9c-2.3-0.1-4.6-0.3-7-0.6c-0.6-0.1-1.2-0.2-1.8-0.3s-1.2-0.2-1.8-0.3
				s-1.2-0.3-1.8-0.4c-0.6-0.1-1.2-0.3-1.8-0.4c-4.8-1.3-9.6-3.2-14.3-5.7l-0.4-0.2c-0.1-0.1-0.3-0.2-0.4-0.3
				c-0.3-0.2-0.6-0.3-0.9-0.5c-0.6-0.3-1.1-0.7-1.7-1c-0.6-0.4-1.1-0.7-1.7-1.1c-0.3-0.2-0.6-0.4-0.8-0.6c-0.3-0.2-0.5-0.4-0.8-0.6
				c-0.5-0.4-1.1-0.8-1.6-1.2c-0.3-0.2-0.5-0.4-0.8-0.6c-0.3-0.2-0.5-0.4-0.8-0.6c-0.3-0.2-0.5-0.4-0.8-0.7l-0.4-0.3l-0.4-0.3
				c-0.5-0.5-1-0.9-1.5-1.4s-1-1-1.5-1.4c-0.5-0.5-1-1-1.5-1.5s-0.9-1-1.4-1.6l-0.7-0.8c-0.1-0.1,0,0,0,0l-0.1-0.1l-0.2-0.2
				l-0.4-0.4c-0.5-0.6-1-1.2-1.4-1.8l-0.2-0.2l-0.1-0.2l-0.3-0.4l-0.6-0.8c-0.8-1.1-1.6-2.3-2.3-3.5c-1.5-2.4-2.9-4.9-4-7.5
				c-0.6-1.3-1.1-2.6-1.7-4c-0.2-0.7-0.5-1.4-0.7-2v-0.1l-12.8,5.5v0.1c0.4,0.8,0.8,1.6,1.2,2.3c0.9,1.5,1.7,3,2.7,4.5
				c1.8,2.9,3.9,5.6,6.1,8.2c1.1,1.2,2.2,2.5,3.4,3.7c0.3,0.3,0.6,0.6,0.9,0.9l0.4,0.4l0.2,0.2l0.2,0.2c0.6,0.5,1.1,1,1.7,1.5
				c0.3,0.3,0.6,0.6,0.9,0.8c0.3,0.3,0.6,0.5,0.9,0.8c0.6,0.5,1.2,1,1.8,1.5s1.3,1,1.9,1.4c0.6,0.5,1.3,0.9,1.9,1.4
				c5.2,3.5,10.5,6.3,16,8.3c1.6,0.6,3.2,1.1,4.8,1.6c0.1,0,0.2,0.1,0.3,0.1s0.2,0.1,0.3,0.1c26,7.4,47.6-2.8,47.6-2.8
				c-0.1,0-0.3,0.1-0.4,0.1C296,139.5,295,139.7,294.1,140z"/>
			<path class="st13" d="M277.2,72.4v4.1v2.4v1.8v38.9v13.7c0.1,0,0.2,0,0.3,0c0.7-0.1,1.4-0.2,2.2-0.3c0.4,0,0.7-0.1,1.1-0.2
				l1.1-0.2c0.4-0.1,0.7-0.1,1.1-0.2l1.1-0.2l1.1-0.2c0.4-0.1,0.7-0.1,1.1-0.2c2.8-0.7,5.6-1.6,8.3-2.7c0.7-0.3,1.3-0.6,2-0.8
				c0.2-0.1,0.5-0.2,0.7-0.3v-0.5L277.2,72.4z"/>
		</g>
	</g>
</g>
</svg>
